G04 DipTrace 4.1.0.1*
G04 TopSilk.gbr*
%MOIN*%
G04 #@! TF.FileFunction,Legend,Top*
G04 #@! TF.Part,Single*
%ADD10C,0.004724*%
%ADD67C,0.00772*%
%ADD68C,0.012351*%
%ADD69C,0.004632*%
%FSLAX26Y26*%
G04*
G70*
G90*
G75*
G01*
G04 TopSilk*
%LPD*%
X1293701Y3393701D2*
D10*
X1493701D1*
Y4193701D1*
X1293701D1*
Y3393701D1*
X2143701D2*
X2343701D1*
Y4193701D1*
X2143701D1*
Y3393701D1*
X2843701Y3343701D2*
X3043701D1*
Y4143701D1*
X2843701D1*
Y3343701D1*
X2793701Y2848425D2*
G02X2793701Y2848425I0J196850D01*
G01*
X2781890Y3202756D2*
X2805512D1*
X2793701Y3214567D2*
Y3190945D1*
X2393708Y1298425D2*
G02X2393708Y1298425I-5J196850D01*
G01*
X2381888Y1652756D2*
X2405510D1*
X2393699Y1664567D2*
X2393700Y1640945D1*
X1843702Y2643701D2*
Y2618701D1*
X1443702Y2618692D1*
Y2643692D1*
X1443700Y2743692D2*
X1443699Y2768692D1*
X1843699Y2768701D1*
X1843700Y2743701D1*
X1662591Y1881881D2*
Y1905521D1*
X1650794Y1893701D2*
X1674421D1*
X1693693D2*
G02X1693693Y1893701I150007J0D01*
G01*
X1662591Y2281881D2*
Y2305521D1*
X1650794Y2293701D2*
X1674421D1*
X1693693D2*
G02X1693693Y2293701I150007J0D01*
G01*
X1293702Y743700D2*
X1168702Y743697D1*
X1293699Y893700D2*
X1168699Y893697D1*
X1168701Y1968701D2*
X1293701D1*
X1168701Y1818701D2*
X1293701D1*
Y918701D2*
X1168701D1*
X1293701Y1068701D2*
X1168701D1*
Y2468701D2*
X1293701D1*
X1168701Y2318701D2*
X1293701D1*
X4138976Y993701D2*
G02X4138976Y993701I-196850J0D01*
G01*
X3784646Y981890D2*
Y1005512D1*
X3772835Y993701D2*
X3796457D1*
X4138976Y1443701D2*
G02X4138976Y1443701I-196850J0D01*
G01*
X3784646Y1431890D2*
Y1455512D1*
X3772835Y1443701D2*
X3796457D1*
X2318706Y764561D2*
X2318714Y564561D1*
X3118714Y564596D1*
X3118706Y764596D1*
X2318706Y764561D1*
X3580521Y3762591D2*
X3556881D1*
X3568701Y3750794D2*
Y3774421D1*
X3418694Y3943700D2*
G02X3418694Y3943700I150007J0D01*
G01*
X3953946Y3596442D2*
X3930306D1*
X3942126Y3584646D2*
Y3608273D1*
X3792119Y3777552D2*
G02X3792119Y3777552I150007J0D01*
G01*
X1522834Y687388D2*
X1522833Y711028D1*
X1511037Y699208D2*
X1534664D1*
X1553936Y699213D2*
G02X1553936Y699213I150007J0D01*
G01*
X2718701Y4193701D2*
X2443701D1*
Y3318701D1*
X2718701D1*
Y4193701D1*
Y4168701D2*
X2443701D1*
X2143701Y2768701D2*
Y2618701D1*
X2481201D1*
Y2768701D1*
X2143701D1*
X2093701D2*
Y2618701D1*
X2143701D1*
Y2768701D1*
X2093701D1*
X2105979Y2440551D2*
X2381423D1*
X2105979Y2546850D2*
X2381423D1*
X2105979Y2440551D2*
Y2546850D1*
X2353787Y2440551D2*
X2385554D1*
Y2546850D1*
X2353787D1*
X2141168D2*
Y2440551D1*
X1650794Y1329060D2*
Y1053617D1*
X1757093Y1329060D2*
Y1053617D1*
X1650794Y1329060D2*
X1757093D1*
X1650794Y1081252D2*
Y1049486D1*
X1757093D1*
Y1081252D1*
Y1293871D2*
X1650794D1*
X1490551Y1329060D2*
Y1053617D1*
X1596850Y1329060D2*
Y1053617D1*
X1490551Y1329060D2*
X1596850D1*
X1490551Y1081252D2*
Y1049486D1*
X1596850D1*
Y1081252D1*
Y1293871D2*
X1490551D1*
X3231201Y827953D2*
X3456201D1*
Y1277953D1*
X3231201D1*
Y827953D1*
Y777953D2*
X3456201D1*
Y827953D1*
X3231201D1*
Y777953D1*
X4267125Y1975931D2*
X4267127Y1861475D1*
G02X4267125Y1975931I-98598J57226D01*
G01*
X3643701Y3297433D2*
X3418701D1*
Y2847433D1*
X3643701D1*
Y3297433D1*
Y3347433D2*
X3418701D1*
Y3297433D1*
X3643701D1*
Y3347433D1*
X493701Y2743701D2*
X893701D1*
Y3843701D1*
X493701D1*
Y2743701D1*
X490551Y2468701D2*
Y2268701D1*
X690551D1*
Y2468701D1*
X490551D1*
Y2043701D2*
Y1843701D1*
X690551D1*
Y2043701D1*
X490551D1*
Y1643701D2*
Y1443701D1*
X690551D1*
Y1643701D1*
X490551D1*
X3979528Y3393701D2*
Y3193701D1*
X4179528D1*
Y3393701D1*
X3979528D1*
Y2593701D2*
Y2393701D1*
X4179528D1*
Y2593701D1*
X3979528D1*
Y2993701D2*
Y2793701D1*
X4179528D1*
Y2993701D1*
X3979528D1*
X2450000Y2240551D2*
X2272835D1*
Y1846850D1*
X2450000D1*
Y2240551D1*
X2414567D2*
Y1846850D1*
X993703Y2743699D2*
X1193703Y2743703D1*
X1193694Y3243703D1*
X993694Y3243699D1*
X993703Y2743699D1*
X1643701Y3093701D2*
Y2893701D1*
X2143701D1*
Y3093701D1*
X1643701D1*
Y3293701D2*
Y3093701D1*
X2143701D1*
Y3293701D1*
X1643701D1*
X1968701Y793701D2*
X2168701D1*
Y1293701D1*
X1968701D1*
Y793701D1*
X2018701Y1743701D2*
X2118701D1*
Y2043701D1*
X2018701D1*
Y1743701D1*
X1818701Y1041339D2*
X1918701D1*
Y1341339D1*
X1818701D1*
Y1041339D1*
X1093701Y2093701D2*
Y1993701D1*
X1393701D1*
Y2093701D1*
X1093701D1*
Y1793701D2*
Y1693701D1*
X1393701D1*
Y1793701D1*
X1093701D1*
X793701Y1343701D2*
X893701D1*
Y1643701D1*
X793701D1*
Y1343701D1*
X1093701Y2243701D2*
Y2143701D1*
X1393701D1*
Y2243701D1*
X1093701D1*
X2422047Y1241339D2*
Y1141339D1*
X2722047D1*
Y1241339D1*
X2422047D1*
X3693701Y1277559D2*
X3493701D1*
Y777559D1*
X3693701D1*
Y1277559D1*
X4268701Y1341339D2*
X4168701D1*
Y1041339D1*
X4268701D1*
Y1341339D1*
X3718701Y2902756D2*
X3868701D1*
Y3302756D1*
X3718701D1*
Y2902756D1*
X2722047Y977559D2*
Y1077559D1*
X2422047D1*
Y977559D1*
X2722047D1*
X1668701Y3793701D2*
X2018701D1*
Y3818701D1*
X1668701D1*
Y3793701D1*
X1693701Y3743701D2*
Y3768701D1*
X1993701D1*
Y3743701D1*
X1693701Y3868701D2*
Y3843701D1*
X1993701D1*
Y3868701D1*
X2743701Y2568701D2*
Y1718701D1*
X3643701D1*
Y2568701D1*
X2743701D1*
X1346067Y1490551D2*
Y1096850D1*
X1141335D2*
X1346067D1*
X1141335Y1490551D2*
Y1096850D1*
Y1490551D2*
X1220075D1*
X1346067D2*
X1267327D1*
X1220075D2*
G03X1267327Y1490551I23626J4D01*
G01*
X968701Y3393701D2*
X1218701D1*
Y4193701D1*
X968701D1*
Y3393701D1*
X1357416Y3797919D2*
D67*
X1352663Y3795543D1*
X1347854Y3790734D1*
X1345478Y3785981D1*
Y3776420D1*
X1347854Y3771611D1*
X1352663Y3766858D1*
X1357416Y3764426D1*
X1364601Y3762049D1*
X1376594D1*
X1383724Y3764426D1*
X1388533Y3766858D1*
X1393286Y3771611D1*
X1395718Y3776420D1*
Y3785981D1*
X1393286Y3790734D1*
X1388533Y3795543D1*
X1383724Y3797919D1*
X1355095Y3813359D2*
X1352663Y3818167D1*
X1345533Y3825352D1*
X1395718D1*
X2227506Y3787169D2*
X2222753Y3784793D1*
X2217945Y3779984D1*
X2215568Y3775231D1*
Y3765670D1*
X2217945Y3760861D1*
X2222753Y3756108D1*
X2227506Y3753676D1*
X2234692Y3751300D1*
X2246685D1*
X2253815Y3753676D1*
X2258623Y3756108D1*
X2263376Y3760861D1*
X2265808Y3765670D1*
Y3775231D1*
X2263376Y3779984D1*
X2258623Y3784793D1*
X2253815Y3787169D1*
X2227562Y3805041D2*
X2225185D1*
X2220377Y3807417D1*
X2218000Y3809794D1*
X2215624Y3814602D1*
Y3824164D1*
X2218000Y3828917D1*
X2220377Y3831294D1*
X2225185Y3833725D1*
X2229938D1*
X2234747Y3831294D1*
X2241877Y3826540D1*
X2265808Y3802609D1*
Y3836102D1*
X2932416Y3737169D2*
X2927663Y3734793D1*
X2922854Y3729984D1*
X2920478Y3725231D1*
Y3715670D1*
X2922854Y3710861D1*
X2927663Y3706108D1*
X2932416Y3703676D1*
X2939601Y3701300D1*
X2951594D1*
X2958724Y3703676D1*
X2963533Y3706108D1*
X2968286Y3710861D1*
X2970718Y3715670D1*
Y3725231D1*
X2968286Y3729984D1*
X2963533Y3734793D1*
X2958724Y3737169D1*
X2920533Y3757417D2*
Y3783670D1*
X2939656Y3769355D1*
Y3776540D1*
X2942033Y3781294D1*
X2944409Y3783670D1*
X2951594Y3786102D1*
X2956348D1*
X2963533Y3783670D1*
X2968341Y3778917D1*
X2970718Y3771732D1*
Y3764547D1*
X2968341Y3757417D1*
X2965909Y3755041D1*
X2961156Y3752609D1*
X3002922Y3236470D2*
X3000546Y3241223D1*
X2995737Y3246032D1*
X2990984Y3248408D1*
X2981422D1*
X2976614Y3246032D1*
X2971861Y3241223D1*
X2969429Y3236470D1*
X2967052Y3229285D1*
Y3217291D1*
X2969429Y3210162D1*
X2971861Y3205353D1*
X2976614Y3200600D1*
X2981422Y3198168D1*
X2990984D1*
X2995737Y3200600D1*
X3000546Y3205353D1*
X3002922Y3210162D1*
X3042293Y3198168D2*
Y3248353D1*
X3018361Y3214915D1*
X3054231D1*
X2604111Y1711475D2*
X2601735Y1716228D1*
X2596926Y1721037D1*
X2592173Y1723413D1*
X2582611D1*
X2577803Y1721036D1*
X2573050Y1716228D1*
X2570618Y1711474D1*
X2568242Y1704289D1*
Y1692296D1*
X2570619Y1685166D1*
X2573051Y1680358D1*
X2577804Y1675605D1*
X2582613Y1673173D1*
X2592174D1*
X2596927Y1675605D1*
X2601736Y1680358D1*
X2604112Y1685167D1*
X2648235Y1723359D2*
X2624359D1*
X2621983Y1701859D1*
X2624359Y1704236D1*
X2631544Y1706668D1*
X2638674D1*
X2645859Y1704236D1*
X2650668Y1699483D1*
X2653044Y1692298D1*
X2653045Y1687545D1*
X2650668Y1680360D1*
X2645860Y1675551D1*
X2638675Y1673174D1*
X2631545D1*
X2624360Y1675551D1*
X2621983Y1677982D1*
X2619551Y1682736D1*
X1638388Y2709894D2*
X1636011Y2714647D1*
X1631202Y2719455D1*
X1626449Y2721832D1*
X1616888Y2721831D1*
X1612079Y2719455D1*
X1607326Y2714646D1*
X1604894Y2709893D1*
X1602518Y2702708D1*
Y2690714D1*
X1604895Y2683585D1*
X1607327Y2678776D1*
X1612080Y2674023D1*
X1616889Y2671591D1*
X1626450Y2671592D1*
X1631203Y2674024D1*
X1636012Y2678777D1*
X1638388Y2683585D1*
X1682512Y2714648D2*
X1680135Y2719401D1*
X1672950Y2721777D1*
X1668197D1*
X1661012Y2719401D1*
X1656203Y2712215D1*
X1653827Y2700277D1*
Y2688339D1*
X1656204Y2678777D1*
X1661013Y2673969D1*
X1668198Y2671593D1*
X1670574D1*
X1677704Y2673969D1*
X1682512Y2678778D1*
X1684889Y2685963D1*
Y2688340D1*
X1682512Y2695525D1*
X1677704Y2700278D1*
X1670574Y2702654D1*
X1668197D1*
X1661012Y2700277D1*
X1656204Y2695524D1*
X1653827Y2688339D1*
X2065719Y1904986D2*
X2063343Y1909739D1*
X2058534Y1914547D1*
X2053781Y1916924D1*
X2044219D1*
X2039411Y1914547D1*
X2034658Y1909739D1*
X2032226Y1904986D1*
X2029849Y1897801D1*
Y1885807D1*
X2032226Y1878677D1*
X2034658Y1873869D1*
X2039411Y1869116D1*
X2044219Y1866684D1*
X2053781D1*
X2058534Y1869116D1*
X2063343Y1873869D1*
X2065719Y1878677D1*
X2090720Y1866684D2*
X2114652Y1916869D1*
X2081159D1*
X2065747Y2309895D2*
X2063370Y2314648D1*
X2058562Y2319457D1*
X2053809Y2321833D1*
X2044247D1*
X2039439Y2319457D1*
X2034685Y2314648D1*
X2032254Y2309895D1*
X2029877Y2302710D1*
Y2290717D1*
X2032254Y2283587D1*
X2034685Y2278778D1*
X2039439Y2274025D1*
X2044247Y2271593D1*
X2053809D1*
X2058562Y2274025D1*
X2063370Y2278778D1*
X2065747Y2283587D1*
X2093124Y2321778D2*
X2085995Y2319401D1*
X2083563Y2314648D1*
Y2309840D1*
X2085995Y2305087D1*
X2090748Y2302655D1*
X2100309Y2300278D1*
X2107495Y2297902D1*
X2112248Y2293093D1*
X2114624Y2288340D1*
Y2281155D1*
X2112248Y2276402D1*
X2109871Y2273970D1*
X2102686Y2271593D1*
X2093124D1*
X2085995Y2273970D1*
X2083563Y2276402D1*
X2081186Y2281155D1*
Y2288340D1*
X2083563Y2293093D1*
X2088371Y2297902D1*
X2095501Y2300278D1*
X2105063Y2302655D1*
X2109871Y2305087D1*
X2112248Y2309840D1*
Y2314648D1*
X2109871Y2319401D1*
X2102686Y2321778D1*
X2093124D1*
X988360Y834891D2*
X985983Y839644D1*
X981175Y844453D1*
X976422Y846829D1*
X966860D1*
X962052Y844452D1*
X957298Y839644D1*
X954867Y834891D1*
X952490Y827705D1*
X952491Y815712D1*
X954867Y808582D1*
X957299Y803774D1*
X962053Y799021D1*
X966861Y796589D1*
X976423D1*
X981176Y799021D1*
X985984Y803775D1*
X988361Y808583D1*
X1034916Y830084D2*
X1032484Y822899D1*
X1027731Y818090D1*
X1020546Y815714D1*
X1018170Y815713D1*
X1010985Y818090D1*
X1006231Y822898D1*
X1003799Y830083D1*
Y832460D1*
X1006231Y839645D1*
X1010984Y844398D1*
X1018169Y846775D1*
X1020546D1*
X1027731Y844399D1*
X1032484Y839645D1*
X1034916Y830084D1*
Y818090D1*
X1032485Y806152D1*
X1027732Y798967D1*
X1020547Y796590D1*
X1015794D1*
X1008609Y798967D1*
X1006232Y803775D1*
X1448453Y1909895D2*
X1446077Y1914648D1*
X1441268Y1919457D1*
X1436515Y1921833D1*
X1426953D1*
X1422145Y1919457D1*
X1417392Y1914648D1*
X1414960Y1909895D1*
X1412583Y1902710D1*
Y1890717D1*
X1414960Y1883587D1*
X1417392Y1878778D1*
X1422145Y1874025D1*
X1426953Y1871593D1*
X1436515D1*
X1441268Y1874025D1*
X1446077Y1878778D1*
X1448453Y1883587D1*
X1463892Y1912216D2*
X1468701Y1914648D1*
X1475886Y1921778D1*
Y1871593D1*
X1505695Y1921778D2*
X1498510Y1919401D1*
X1493702Y1912216D1*
X1491325Y1900278D1*
Y1893093D1*
X1493702Y1881155D1*
X1498510Y1873970D1*
X1505695Y1871593D1*
X1510448D1*
X1517633Y1873970D1*
X1522387Y1881155D1*
X1524818Y1893093D1*
Y1900278D1*
X1522387Y1912216D1*
X1517633Y1919401D1*
X1510448Y1921778D1*
X1505695D1*
X1522387Y1912216D2*
X1493702Y1881155D1*
X984203Y1014803D2*
X981826Y1019556D1*
X977018Y1024365D1*
X972265Y1026741D1*
X962703D1*
X957895Y1024365D1*
X953142Y1019556D1*
X950710Y1014803D1*
X948333Y1007618D1*
Y995625D1*
X950710Y988495D1*
X953142Y983686D1*
X957895Y978933D1*
X962703Y976501D1*
X972265D1*
X977018Y978933D1*
X981826Y983686D1*
X984203Y988495D1*
X999642Y1017125D2*
X1004451Y1019556D1*
X1011636Y1026686D1*
Y976501D1*
X1027075Y1017125D2*
X1031883Y1019556D1*
X1039068Y1026686D1*
Y976501D1*
X1448453Y2409895D2*
X1446077Y2414648D1*
X1441268Y2419457D1*
X1436515Y2421833D1*
X1426953D1*
X1422145Y2419457D1*
X1417392Y2414648D1*
X1414960Y2409895D1*
X1412583Y2402710D1*
Y2390717D1*
X1414960Y2383587D1*
X1417392Y2378778D1*
X1422145Y2374025D1*
X1426953Y2371593D1*
X1436515D1*
X1441268Y2374025D1*
X1446077Y2378778D1*
X1448453Y2383587D1*
X1463892Y2412216D2*
X1468701Y2414648D1*
X1475886Y2421778D1*
Y2371593D1*
X1493757Y2409840D2*
Y2412216D1*
X1496134Y2417025D1*
X1498510Y2419401D1*
X1503319Y2421778D1*
X1512880D1*
X1517633Y2419401D1*
X1520010Y2417025D1*
X1522442Y2412216D1*
Y2407463D1*
X1520010Y2402655D1*
X1515257Y2395525D1*
X1491325Y2371593D1*
X1524818D1*
X3796878Y767953D2*
X3794502Y772706D1*
X3789693Y777514D1*
X3784940Y779891D1*
X3775378D1*
X3770570Y777514D1*
X3765817Y772706D1*
X3763385Y767953D1*
X3761008Y760768D1*
Y748774D1*
X3763385Y741645D1*
X3765817Y736836D1*
X3770570Y732083D1*
X3775378Y729651D1*
X3784940D1*
X3789693Y732083D1*
X3794502Y736836D1*
X3796878Y741645D1*
X3812318Y770274D2*
X3817126Y772706D1*
X3824311Y779836D1*
Y729651D1*
X3844559Y779836D2*
X3870812D1*
X3856497Y760713D1*
X3863682D1*
X3868435Y758336D1*
X3870812Y755959D1*
X3873244Y748774D1*
Y744021D1*
X3870812Y736836D1*
X3866059Y732028D1*
X3858874Y729651D1*
X3851688D1*
X3844559Y732028D1*
X3842182Y734459D1*
X3839750Y739213D1*
X3795690Y1676836D2*
X3793313Y1681589D1*
X3788505Y1686398D1*
X3783752Y1688774D1*
X3774190D1*
X3769382Y1686398D1*
X3764629Y1681589D1*
X3762197Y1676836D1*
X3759820Y1669651D1*
Y1657658D1*
X3762197Y1650528D1*
X3764629Y1645719D1*
X3769382Y1640966D1*
X3774190Y1638534D1*
X3783752D1*
X3788505Y1640966D1*
X3793313Y1645719D1*
X3795690Y1650528D1*
X3811129Y1679157D2*
X3815938Y1681589D1*
X3823123Y1688719D1*
Y1638534D1*
X3862494D2*
Y1688719D1*
X3838562Y1655281D1*
X3874432D1*
X2698458Y680767D2*
X2696081Y685520D1*
X2691272Y690328D1*
X2686519Y692705D1*
X2676957Y692704D1*
X2672149Y690327D1*
X2667396Y685519D1*
X2664964Y680765D1*
X2662588Y673580D1*
X2662589Y661587D1*
X2664965Y654457D1*
X2667398Y649649D1*
X2672151Y644896D1*
X2676959Y642464D1*
X2686521Y642465D1*
X2691274Y644897D1*
X2696082Y649650D1*
X2698459Y654459D1*
X2713897Y683089D2*
X2718705Y685521D1*
X2725890Y692651D1*
X2725892Y642466D1*
X2770014Y692653D2*
X2746138Y692652D1*
X2743762Y671152D1*
X2746138Y673529D1*
X2753323Y675961D1*
X2760453D1*
X2767638Y673530D1*
X2772447Y668777D1*
X2774824Y661592D1*
Y656839D1*
X2772448Y649653D1*
X2767639Y644845D1*
X2760455Y642468D1*
X2753325D1*
X2746140Y644844D1*
X2743763Y647276D1*
X2741331Y652029D1*
X3357416Y3902003D2*
X3352663Y3899626D1*
X3347854Y3894818D1*
X3345478Y3890065D1*
Y3880503D1*
X3347854Y3875695D1*
X3352663Y3870941D1*
X3357416Y3868510D1*
X3364601Y3866133D1*
X3376594D1*
X3383724Y3868510D1*
X3388533Y3870941D1*
X3393286Y3875695D1*
X3395718Y3880503D1*
Y3890065D1*
X3393286Y3894818D1*
X3388533Y3899626D1*
X3383724Y3902003D1*
X3355095Y3917442D2*
X3352663Y3922251D1*
X3345533Y3929436D1*
X3395718D1*
Y3954437D2*
X3345533Y3978368D1*
Y3944875D1*
X3730841Y3735882D2*
X3726088Y3733506D1*
X3721279Y3728697D1*
X3718903Y3723944D1*
Y3714382D1*
X3721279Y3709574D1*
X3726088Y3704821D1*
X3730841Y3702389D1*
X3738026Y3700012D1*
X3750020D1*
X3757149Y3702389D1*
X3761958Y3704821D1*
X3766711Y3709574D1*
X3769143Y3714382D1*
Y3723944D1*
X3766711Y3728697D1*
X3761958Y3733506D1*
X3757149Y3735882D1*
X3728520Y3751322D2*
X3726088Y3756130D1*
X3718958Y3763315D1*
X3769143D1*
X3718958Y3790693D2*
X3721335Y3783563D1*
X3726088Y3781131D1*
X3730896D1*
X3735650Y3783563D1*
X3738081Y3788316D1*
X3740458Y3797878D1*
X3742835Y3805063D1*
X3747643Y3809816D1*
X3752396Y3812192D1*
X3759581D1*
X3764334Y3809816D1*
X3766766Y3807439D1*
X3769143Y3800254D1*
Y3790693D1*
X3766766Y3783563D1*
X3764334Y3781131D1*
X3759581Y3778754D1*
X3752396D1*
X3747643Y3781131D1*
X3742835Y3785939D1*
X3740458Y3793069D1*
X3738081Y3802631D1*
X3735650Y3807439D1*
X3730896Y3809816D1*
X3726088D1*
X3721335Y3807439D1*
X3718958Y3800254D1*
Y3790693D1*
X1672353Y820315D2*
X1669976Y825068D1*
X1665168Y829876D1*
X1660414Y832253D1*
X1650853Y832252D1*
X1646044Y829876D1*
X1641291Y825067D1*
X1638860Y820314D1*
X1636483Y813129D1*
X1636484Y801135D1*
X1638860Y794005D1*
X1641292Y789197D1*
X1646046Y784444D1*
X1650854Y782012D1*
X1660416Y782013D1*
X1665169Y784445D1*
X1669977Y789198D1*
X1672354Y794006D1*
X1687792Y822637D2*
X1692601Y825069D1*
X1699785Y832198D1*
X1699787Y782014D1*
X1746342Y815508D2*
X1743910Y808323D1*
X1739157Y803515D1*
X1731972Y801138D1*
X1729596D1*
X1722411Y803514D1*
X1717657Y808323D1*
X1715225Y815508D1*
Y817884D1*
X1717657Y825069D1*
X1722410Y829823D1*
X1729595Y832199D1*
X1731971D1*
X1739156Y829823D1*
X1743910Y825070D1*
X1746342Y815508D1*
Y803515D1*
X1743911Y791577D1*
X1739158Y784392D1*
X1731973Y782015D1*
X1727220D1*
X1720035Y784391D1*
X1717658Y789199D1*
X2810775Y4068745D2*
D68*
X2741887D1*
X2776286Y4103145D2*
Y4034257D1*
X2736183Y3876242D2*
X2816567Y3906928D1*
X2736183Y3937525D1*
X2762978Y3926029D2*
Y3887738D1*
X2797466Y3794148D2*
X2805071Y3797950D1*
X2812764Y3805644D1*
X2816567Y3813249D1*
Y3828547D1*
X2812764Y3836241D1*
X2805071Y3843846D1*
X2797466Y3847737D1*
X2785970Y3851539D1*
X2766780D1*
X2755372Y3847737D1*
X2747679Y3843846D1*
X2740074Y3836241D1*
X2736183Y3828547D1*
Y3813249D1*
X2740074Y3805644D1*
X2747679Y3797950D1*
X2755372Y3794148D1*
X2736183Y3626242D2*
X2816567Y3656928D1*
X2736183Y3687525D1*
X2762978Y3676029D2*
Y3637738D1*
X2797466Y3544148D2*
X2805071Y3547950D1*
X2812764Y3555644D1*
X2816567Y3563249D1*
Y3578547D1*
X2812764Y3586241D1*
X2805071Y3593846D1*
X2797466Y3597737D1*
X2785970Y3601539D1*
X2766780D1*
X2755372Y3597737D1*
X2747679Y3593846D1*
X2740074Y3586241D1*
X2736183Y3578547D1*
Y3563249D1*
X2740074Y3555644D1*
X2747679Y3547950D1*
X2755372Y3544148D1*
X2776331Y3440352D2*
Y3396136D1*
X2563238Y4284333D2*
D67*
Y4234093D1*
X2579984D1*
X2587169Y4236525D1*
X2591978Y4241278D1*
X2594354Y4246087D1*
X2596731Y4253217D1*
Y4265210D1*
X2594354Y4272395D1*
X2591978Y4277148D1*
X2587169Y4281957D1*
X2579984Y4284333D1*
X2563238D1*
X2612170Y4274716D2*
X2616979Y4277148D1*
X2624164Y4284278D1*
Y4234093D1*
X2252488Y2721833D2*
Y2671593D1*
X2269234D1*
X2276420Y2674025D1*
X2281228Y2678778D1*
X2283605Y2683587D1*
X2285981Y2690717D1*
Y2702710D1*
X2283605Y2709895D1*
X2281228Y2714648D1*
X2276420Y2719457D1*
X2269234Y2721833D1*
X2252488D1*
X2303852Y2709840D2*
Y2712216D1*
X2306229Y2717025D1*
X2308605Y2719401D1*
X2313414Y2721778D1*
X2322976D1*
X2327729Y2719401D1*
X2330105Y2717025D1*
X2332537Y2712216D1*
Y2707463D1*
X2330105Y2702655D1*
X2325352Y2695525D1*
X2301420Y2671593D1*
X2334914D1*
X2202488Y2521833D2*
Y2471593D1*
X2219234D1*
X2226420Y2474025D1*
X2231228Y2478778D1*
X2233605Y2483587D1*
X2235981Y2490717D1*
Y2502710D1*
X2233605Y2509895D1*
X2231228Y2514648D1*
X2226420Y2519457D1*
X2219234Y2521833D1*
X2202488D1*
X2256229Y2521778D2*
X2282482D1*
X2268167Y2502655D1*
X2275352D1*
X2280105Y2500278D1*
X2282482Y2497902D1*
X2284914Y2490717D1*
Y2485963D1*
X2282482Y2478778D1*
X2277729Y2473970D1*
X2270544Y2471593D1*
X2263359D1*
X2256229Y2473970D1*
X2253852Y2476402D1*
X2251420Y2481155D1*
X1732076Y1233740D2*
X1681836D1*
Y1216993D1*
X1684268Y1209808D1*
X1689021Y1205000D1*
X1693830Y1202623D1*
X1700959Y1200247D1*
X1712953D1*
X1720138Y1202623D1*
X1724891Y1205000D1*
X1729700Y1209808D1*
X1732076Y1216993D1*
Y1233740D1*
X1681836Y1160876D2*
X1732021D1*
X1698583Y1184807D1*
Y1148937D1*
X1571833Y1207552D2*
X1521593D1*
Y1190805D1*
X1524025Y1183620D1*
X1528778Y1178811D1*
X1533587Y1176435D1*
X1540717Y1174058D1*
X1552710D1*
X1559895Y1176435D1*
X1564648Y1178811D1*
X1569457Y1183620D1*
X1571833Y1190805D1*
Y1207552D1*
X1571778Y1129934D2*
Y1153811D1*
X1550278Y1156187D1*
X1552655Y1153811D1*
X1555087Y1146625D1*
Y1139496D1*
X1552655Y1132311D1*
X1547902Y1127502D1*
X1540717Y1125126D1*
X1535963D1*
X1528778Y1127502D1*
X1523970Y1132311D1*
X1521593Y1139496D1*
Y1146625D1*
X1523970Y1153811D1*
X1526402Y1156187D1*
X1531155Y1158619D1*
X3315568Y1010552D2*
X3365808D1*
Y1027298D1*
X3363376Y1034483D1*
X3358623Y1039292D1*
X3353815Y1041668D1*
X3346685Y1044045D1*
X3334692D1*
X3327506Y1041668D1*
X3322753Y1039292D1*
X3317945Y1034483D1*
X3315568Y1027298D1*
Y1010552D1*
X3322753Y1088169D2*
X3318000Y1085792D1*
X3315624Y1078607D1*
Y1073854D1*
X3318000Y1066669D1*
X3325185Y1061861D1*
X3337123Y1059484D1*
X3349062D1*
X3358623Y1061861D1*
X3363432Y1066669D1*
X3365808Y1073854D1*
Y1076231D1*
X3363432Y1083361D1*
X3358623Y1088169D1*
X3351438Y1090546D1*
X3349062D1*
X3341877Y1088169D1*
X3337123Y1083361D1*
X3334747Y1076231D1*
Y1073854D1*
X3337123Y1066669D1*
X3341877Y1061861D1*
X3349062Y1059484D1*
X4203487Y1831049D2*
D69*
X4203486Y1856882D1*
X4216387Y1843982D2*
X4190554D1*
X4202044Y1731477D2*
D67*
X4202043Y1781717D1*
X4185296D1*
X4178111Y1779285D1*
X4173303Y1774531D1*
X4170926Y1769723D1*
X4168550Y1762593D1*
Y1750599D1*
X4170927Y1743414D1*
X4173304Y1738661D1*
X4178112Y1733853D1*
X4185297Y1731477D1*
X4202044D1*
X4143549Y1781716D2*
X4119618Y1731530D1*
X4153111Y1731531D1*
X3559333Y3143941D2*
X3509093D1*
Y3127195D1*
X3511525Y3120010D1*
X3516278Y3115201D1*
X3521087Y3112824D1*
X3528217Y3110448D1*
X3540210D1*
X3547395Y3112824D1*
X3552148Y3115201D1*
X3556957Y3120010D1*
X3559333Y3127195D1*
Y3143941D1*
X3559278Y3083070D2*
X3556901Y3090200D1*
X3552148Y3092632D1*
X3547340D1*
X3542587Y3090200D1*
X3540155Y3085447D1*
X3537778Y3075885D1*
X3535402Y3068700D1*
X3530593Y3063947D1*
X3525840Y3061571D1*
X3518655D1*
X3513902Y3063947D1*
X3511470Y3066324D1*
X3509093Y3073509D1*
Y3083070D1*
X3511470Y3090200D1*
X3513902Y3092632D1*
X3518655Y3095009D1*
X3525840D1*
X3530593Y3092632D1*
X3535402Y3087824D1*
X3537778Y3080694D1*
X3540155Y3071132D1*
X3542587Y3066324D1*
X3547340Y3063947D1*
X3552148D1*
X3556901Y3066324D1*
X3559278Y3073509D1*
Y3083070D1*
X665568Y3295543D2*
Y3264426D1*
X715808D1*
X689500D2*
Y3283549D1*
X675185Y3310982D2*
X672753Y3315790D1*
X665624Y3322976D1*
X715808D1*
X588801Y2541924D2*
Y2503677D1*
X586424Y2496492D1*
X583992Y2494116D1*
X579239Y2491684D1*
X574431D1*
X569677Y2494116D1*
X567301Y2496492D1*
X564869Y2503677D1*
Y2508431D1*
X604240Y2532307D2*
X609048Y2534739D1*
X616233Y2541869D1*
Y2491684D1*
X578051Y2116924D2*
Y2078677D1*
X575674Y2071492D1*
X573242Y2069116D1*
X568489Y2066684D1*
X563681D1*
X558927Y2069116D1*
X556551Y2071492D1*
X554119Y2078677D1*
Y2083431D1*
X595922Y2104930D2*
Y2107307D1*
X598298Y2112115D1*
X600675Y2114492D1*
X605483Y2116869D1*
X615045D1*
X619798Y2114492D1*
X622175Y2112115D1*
X624607Y2107307D1*
Y2102554D1*
X622175Y2097745D1*
X617422Y2090616D1*
X593490Y2066684D1*
X626983D1*
X578051Y1716924D2*
Y1678677D1*
X575674Y1671492D1*
X573242Y1669116D1*
X568489Y1666684D1*
X563681D1*
X558927Y1669116D1*
X556551Y1671492D1*
X554119Y1678677D1*
Y1683431D1*
X598298Y1716869D2*
X624551D1*
X610237Y1697745D1*
X617422D1*
X622175Y1695369D1*
X624551Y1692992D1*
X626983Y1685807D1*
Y1681054D1*
X624551Y1673869D1*
X619798Y1669060D1*
X612613Y1666684D1*
X605428D1*
X598298Y1669060D1*
X595922Y1671492D1*
X593490Y1676245D1*
X4065839Y3466924D2*
Y3428677D1*
X4063462Y3421492D1*
X4061030Y3419116D1*
X4056277Y3416684D1*
X4051469D1*
X4046716Y3419116D1*
X4044339Y3421492D1*
X4041907Y3428677D1*
Y3433431D1*
X4105210Y3416684D2*
Y3466869D1*
X4081278Y3433431D1*
X4117148D1*
X4067027Y2666924D2*
Y2628677D1*
X4064651Y2621492D1*
X4062219Y2619116D1*
X4057465Y2616684D1*
X4052657D1*
X4047904Y2619116D1*
X4045527Y2621492D1*
X4043095Y2628677D1*
Y2633431D1*
X4111151Y2666869D2*
X4087275D1*
X4084898Y2645369D1*
X4087275Y2647745D1*
X4094460Y2650177D1*
X4101590D1*
X4108775Y2647745D1*
X4113583Y2642992D1*
X4115960Y2635807D1*
Y2631054D1*
X4113583Y2623869D1*
X4108775Y2619060D1*
X4101590Y2616684D1*
X4094460D1*
X4087275Y2619060D1*
X4084898Y2621492D1*
X4082466Y2626245D1*
X4068243Y3066924D2*
Y3028677D1*
X4065866Y3021492D1*
X4063435Y3019116D1*
X4058681Y3016684D1*
X4053873D1*
X4049120Y3019116D1*
X4046743Y3021492D1*
X4044311Y3028677D1*
Y3033431D1*
X4112367Y3059739D2*
X4109991Y3064492D1*
X4102806Y3066869D1*
X4098052D1*
X4090867Y3064492D1*
X4086059Y3057307D1*
X4083682Y3045369D1*
Y3033431D1*
X4086059Y3023869D1*
X4090867Y3019060D1*
X4098052Y3016684D1*
X4100429D1*
X4107559Y3019060D1*
X4112367Y3023869D1*
X4114744Y3031054D1*
Y3033431D1*
X4112367Y3040616D1*
X4107559Y3045369D1*
X4100429Y3047745D1*
X4098052D1*
X4090867Y3045369D1*
X4086059Y3040616D1*
X4083682Y3033431D1*
X2523223Y2062198D2*
X2520902Y2066951D1*
X2516093Y2071760D1*
X2511285Y2074136D1*
X2504100Y2076568D1*
X2492162D1*
X2484977Y2074136D1*
X2480223Y2071760D1*
X2475415Y2066951D1*
X2473038Y2062198D1*
Y2052636D1*
X2475415Y2047828D1*
X2480223Y2043075D1*
X2484977Y2040698D1*
X2492162Y2038266D1*
X2504100D1*
X2511285Y2040698D1*
X2516093Y2043075D1*
X2520902Y2047828D1*
X2523223Y2052636D1*
Y2062198D1*
X2482600Y2055013D2*
X2468230Y2040698D1*
X2513606Y2022827D2*
X2516038Y2018019D1*
X2523168Y2010834D1*
X2472983D1*
X1089501Y2988235D2*
Y3009735D1*
X1087069Y3016920D1*
X1084692Y3019352D1*
X1079939Y3021728D1*
X1075131D1*
X1070378Y3019351D1*
X1067946Y3016920D1*
X1065569Y3009734D1*
X1065570Y2988235D1*
X1115810Y2988236D1*
X1089501Y3004982D2*
X1115809Y3021729D1*
X1075186Y3037167D2*
X1072754Y3041976D1*
X1065624Y3049161D1*
X1115809Y3049162D1*
X1852488Y2997902D2*
X1873988D1*
X1881173Y3000333D1*
X1883605Y3002710D1*
X1885981Y3007463D1*
Y3012272D1*
X1883605Y3017025D1*
X1881173Y3019457D1*
X1873988Y3021833D1*
X1852488D1*
Y2971593D1*
X1869234Y2997902D2*
X1885981Y2971593D1*
X1903852Y3009840D2*
Y3012216D1*
X1906229Y3017025D1*
X1908605Y3019401D1*
X1913414Y3021778D1*
X1922976D1*
X1927729Y3019401D1*
X1930105Y3017025D1*
X1932537Y3012216D1*
Y3007463D1*
X1930105Y3002655D1*
X1925352Y2995525D1*
X1901420Y2971593D1*
X1934914D1*
X1852488Y3197902D2*
X1873988D1*
X1881173Y3200333D1*
X1883605Y3202710D1*
X1885981Y3207463D1*
Y3212272D1*
X1883605Y3217025D1*
X1881173Y3219457D1*
X1873988Y3221833D1*
X1852488D1*
Y3171593D1*
X1869234Y3197902D2*
X1885981Y3171593D1*
X1906229Y3221778D2*
X1932482D1*
X1918167Y3202655D1*
X1925352D1*
X1930105Y3200278D1*
X1932482Y3197902D1*
X1934914Y3190717D1*
Y3185963D1*
X1932482Y3178778D1*
X1927729Y3173970D1*
X1920544Y3171593D1*
X1913359D1*
X1906229Y3173970D1*
X1903852Y3176402D1*
X1901420Y3181155D1*
X2069409Y1001300D2*
Y1022799D1*
X2066978Y1029984D1*
X2064601Y1032416D1*
X2059848Y1034793D1*
X2055039D1*
X2050286Y1032416D1*
X2047854Y1029984D1*
X2045478Y1022799D1*
Y1001300D1*
X2095718D1*
X2069409Y1018046D2*
X2095718Y1034793D1*
Y1074164D2*
X2045533D1*
X2078971Y1050232D1*
Y1086102D1*
X2069409Y1852488D2*
Y1873988D1*
X2066978Y1881173D1*
X2064601Y1883605D1*
X2059848Y1885981D1*
X2055039D1*
X2050286Y1883605D1*
X2047854Y1881173D1*
X2045478Y1873988D1*
Y1852488D1*
X2095718D1*
X2069409Y1869234D2*
X2095718Y1885981D1*
X2045533Y1930105D2*
Y1906229D1*
X2067033Y1903852D1*
X2064656Y1906229D1*
X2062224Y1913414D1*
Y1920544D1*
X2064656Y1927729D1*
X2069409Y1932537D1*
X2076594Y1934914D1*
X2081348D1*
X2088533Y1932537D1*
X2093341Y1927729D1*
X2095718Y1920544D1*
Y1913414D1*
X2093341Y1906229D1*
X2090909Y1903852D1*
X2086156Y1901420D1*
X1864500Y1148937D2*
Y1170437D1*
X1862068Y1177622D1*
X1859692Y1180054D1*
X1854938Y1182431D1*
X1850130D1*
X1845377Y1180054D1*
X1842945Y1177622D1*
X1840568Y1170437D1*
Y1148937D1*
X1890808D1*
X1864500Y1165684D2*
X1890808Y1182431D1*
X1847753Y1226555D2*
X1843000Y1224178D1*
X1840624Y1216993D1*
Y1212240D1*
X1843000Y1205055D1*
X1850185Y1200247D1*
X1862123Y1197870D1*
X1874062D1*
X1883623Y1200247D1*
X1888432Y1205055D1*
X1890808Y1212240D1*
Y1214617D1*
X1888432Y1221746D1*
X1883623Y1226555D1*
X1876438Y1228931D1*
X1874062D1*
X1866877Y1226555D1*
X1862123Y1221746D1*
X1859747Y1214617D1*
Y1212240D1*
X1862123Y1205055D1*
X1866877Y1200247D1*
X1874062Y1197870D1*
X1202488Y2047902D2*
X1223988D1*
X1231173Y2050333D1*
X1233605Y2052710D1*
X1235981Y2057463D1*
Y2062272D1*
X1233605Y2067025D1*
X1231173Y2069457D1*
X1223988Y2071833D1*
X1202488D1*
Y2021593D1*
X1219234Y2047902D2*
X1235981Y2021593D1*
X1260982D2*
X1284914Y2071778D1*
X1251420D1*
X1202515Y1747902D2*
X1224015D1*
X1231200Y1750333D1*
X1233632Y1752710D1*
X1236009Y1757463D1*
Y1762272D1*
X1233632Y1767025D1*
X1231200Y1769457D1*
X1224015Y1771833D1*
X1202515D1*
Y1721593D1*
X1219262Y1747902D2*
X1236009Y1721593D1*
X1263386Y1771778D2*
X1256256Y1769401D1*
X1253825Y1764648D1*
Y1759840D1*
X1256256Y1755087D1*
X1261010Y1752655D1*
X1270571Y1750278D1*
X1277756Y1747902D1*
X1282510Y1743093D1*
X1284886Y1738340D1*
Y1731155D1*
X1282510Y1726402D1*
X1280133Y1723970D1*
X1272948Y1721593D1*
X1263386D1*
X1256256Y1723970D1*
X1253825Y1726402D1*
X1251448Y1731155D1*
Y1738340D1*
X1253825Y1743093D1*
X1258633Y1747902D1*
X1265763Y1750278D1*
X1275324Y1752655D1*
X1280133Y1755087D1*
X1282510Y1759840D1*
Y1764648D1*
X1280133Y1769401D1*
X1272948Y1771778D1*
X1263386D1*
X839500Y1453676D2*
Y1475176D1*
X837068Y1482361D1*
X834692Y1484793D1*
X829938Y1487169D1*
X825130D1*
X820377Y1484793D1*
X817945Y1482361D1*
X815568Y1475176D1*
Y1453676D1*
X865808D1*
X839500Y1470423D2*
X865808Y1487169D1*
X832315Y1533725D2*
X839500Y1531294D1*
X844308Y1526540D1*
X846685Y1519355D1*
Y1516979D1*
X844308Y1509794D1*
X839500Y1505041D1*
X832315Y1502609D1*
X829938D1*
X822753Y1505041D1*
X818000Y1509794D1*
X815624Y1516979D1*
Y1519355D1*
X818000Y1526540D1*
X822753Y1531294D1*
X832315Y1533725D1*
X844308D1*
X856247Y1531294D1*
X863432Y1526540D1*
X865808Y1519355D1*
Y1514602D1*
X863432Y1507417D1*
X858623Y1505041D1*
X1188771Y2197902D2*
X1210271D1*
X1217456Y2200333D1*
X1219888Y2202710D1*
X1222265Y2207463D1*
Y2212272D1*
X1219888Y2217025D1*
X1217456Y2219457D1*
X1210271Y2221833D1*
X1188771D1*
Y2171593D1*
X1205518Y2197902D2*
X1222265Y2171593D1*
X1237704Y2212216D2*
X1242512Y2214648D1*
X1249698Y2221778D1*
Y2171593D1*
X1279507Y2221778D2*
X1272322Y2219401D1*
X1267513Y2212216D1*
X1265137Y2200278D1*
Y2193093D1*
X1267513Y2181155D1*
X1272322Y2173970D1*
X1279507Y2171593D1*
X1284260D1*
X1291445Y2173970D1*
X1296198Y2181155D1*
X1298630Y2193093D1*
Y2200278D1*
X1296198Y2212216D1*
X1291445Y2219401D1*
X1284260Y2221778D1*
X1279507D1*
X1296198Y2212216D2*
X1267513Y2181155D1*
X2527868Y1195539D2*
X2549368D1*
X2556553Y1197971D1*
X2558985Y1200348D1*
X2561361Y1205101D1*
Y1209909D1*
X2558985Y1214663D1*
X2556553Y1217095D1*
X2549368Y1219471D1*
X2527868D1*
Y1169231D1*
X2544615Y1195539D2*
X2561361Y1169231D1*
X2576800Y1209854D2*
X2581609Y1212286D1*
X2588794Y1219416D1*
Y1169231D1*
X2604233Y1209854D2*
X2609042Y1212286D1*
X2616227Y1219416D1*
Y1169231D1*
X3597902Y1077440D2*
Y1055940D1*
X3600333Y1048755D1*
X3602710Y1046323D1*
X3607463Y1043946D1*
X3612272D1*
X3617025Y1046323D1*
X3619457Y1048755D1*
X3621833Y1055940D1*
Y1077440D1*
X3571593D1*
X3597902Y1060693D2*
X3571593Y1043946D1*
X3612216Y1028507D2*
X3614648Y1023699D1*
X3621778Y1016514D1*
X3571593D1*
X3609840Y998643D2*
X3612216D1*
X3617025Y996266D1*
X3619401Y993889D1*
X3621778Y989081D1*
Y979519D1*
X3619401Y974766D1*
X3617025Y972390D1*
X3612216Y969958D1*
X3607463D1*
X3602655Y972390D1*
X3595525Y977143D1*
X3571593Y1001075D1*
Y967581D1*
X4222902Y1246268D2*
Y1224768D1*
X4225333Y1217583D1*
X4227710Y1215151D1*
X4232463Y1212775D1*
X4237272D1*
X4242025Y1215151D1*
X4244457Y1217583D1*
X4246833Y1224768D1*
Y1246268D1*
X4196593D1*
X4222902Y1229521D2*
X4196593Y1212775D1*
X4237216Y1197335D2*
X4239648Y1192527D1*
X4246778Y1185342D1*
X4196593D1*
X4246778Y1165094D2*
Y1138841D1*
X4227655Y1153156D1*
Y1145971D1*
X4225278Y1141218D1*
X4222902Y1138841D1*
X4215717Y1136409D1*
X4210963D1*
X4203778Y1138841D1*
X4198970Y1143594D1*
X4196593Y1150779D1*
Y1157964D1*
X4198970Y1165094D1*
X4201402Y1167471D1*
X4206155Y1169903D1*
X3789500Y3046638D2*
Y3068138D1*
X3787068Y3075323D1*
X3784692Y3077755D1*
X3779938Y3080132D1*
X3775130D1*
X3770377Y3077755D1*
X3767945Y3075323D1*
X3765568Y3068138D1*
Y3046638D1*
X3815808D1*
X3789500Y3063385D2*
X3815808Y3080132D1*
X3775185Y3095571D2*
X3772753Y3100379D1*
X3765624Y3107564D1*
X3815808D1*
Y3146935D2*
X3765624D1*
X3799062Y3123004D1*
Y3158874D1*
X2626977Y928268D2*
X2605477D1*
X2598292Y925836D1*
X2595860Y923459D1*
X2593483Y918706D1*
Y913898D1*
X2595860Y909144D1*
X2598292Y906713D1*
X2605477Y904336D1*
X2626977D1*
Y954576D1*
X2610230Y928268D2*
X2593483Y954576D1*
X2578044Y913953D2*
X2573236Y911521D1*
X2566050Y904391D1*
Y954576D1*
X2521926Y904391D2*
X2545803D1*
X2548179Y925891D1*
X2545803Y923515D1*
X2538618Y921083D1*
X2531488D1*
X2524303Y923515D1*
X2519495Y928268D1*
X2517118Y935453D1*
Y940206D1*
X2519495Y947391D1*
X2524303Y952199D1*
X2531488Y954576D1*
X2538618D1*
X2545803Y952199D1*
X2548179Y949768D1*
X2550611Y945014D1*
X1829984Y4092361D2*
Y4042121D1*
X1813238Y4092361D2*
X1846731D1*
X1862170Y4082744D2*
X1866979Y4085176D1*
X1874164Y4092306D1*
Y4042121D1*
X3169234Y2641924D2*
Y2591684D1*
X3152488Y2641924D2*
X3185981D1*
X3203852Y2629930D2*
Y2632307D1*
X3206229Y2637115D1*
X3208605Y2639492D1*
X3213414Y2641869D1*
X3222976D1*
X3227729Y2639492D1*
X3230105Y2637115D1*
X3232537Y2632307D1*
Y2627554D1*
X3230105Y2622745D1*
X3225352Y2615616D1*
X3201420Y2591684D1*
X3234914D1*
X1213238Y1563774D2*
Y1527904D1*
X1215614Y1520719D1*
X1220423Y1515966D1*
X1227608Y1513534D1*
X1232361D1*
X1239546Y1515966D1*
X1244354Y1520719D1*
X1246731Y1527904D1*
Y1563774D1*
X1262170Y1554157D2*
X1266979Y1556589D1*
X1274164Y1563719D1*
Y1513534D1*
X1065568Y3748895D2*
X1115808Y3768018D1*
X1065568Y3787141D1*
X1089500Y3802581D2*
Y3824080D1*
X1087068Y3831266D1*
X1084692Y3833697D1*
X1079938Y3836074D1*
X1075130D1*
X1070377Y3833697D1*
X1067945Y3831266D1*
X1065568Y3824080D1*
Y3802581D1*
X1115808D1*
X1089500Y3819327D2*
X1115808Y3836074D1*
X1075185Y3851513D2*
X1072753Y3856322D1*
X1065624Y3863507D1*
X1115808D1*
M02*
