G04 DipTrace 4.1.0.1*
G04 TopMask.gbr*
%MOIN*%
G04 #@! TF.FileFunction,Soldermask,Top*
G04 #@! TF.Part,Single*
%ADD21C,0.15748*%
%ADD39C,0.082677*%
%ADD41R,0.074803X0.074803*%
%ADD43C,0.102362*%
%ADD45C,0.129921*%
%ADD46C,0.122047*%
%ADD47C,0.122047*%
%ADD49C,0.181102*%
%ADD51R,0.082677X0.082677*%
%ADD52C,0.090551*%
%ADD53C,0.161417*%
%ADD55C,0.161417*%
%ADD57R,0.161417X0.161417*%
%ADD59R,0.090551X0.090551*%
%ADD60C,0.090551*%
%ADD62C,0.102362*%
%ADD64R,0.102362X0.102362*%
%FSLAX26Y26*%
G04*
G70*
G90*
G75*
G01*
G04 TopMask*
%LPD*%
D46*
X1393701Y3493701D3*
Y4093701D3*
X2243701Y3493701D3*
Y4093701D3*
X2943701Y3443701D3*
Y4043701D3*
D64*
X2793701Y3143701D3*
D62*
Y2946850D3*
D64*
X2393701Y1593701D3*
D62*
X2393706Y1396850D3*
X1793701Y2693700D3*
X1493701Y2693694D3*
D60*
X1943701Y1893701D3*
D59*
X1743701D3*
D60*
X1943701Y2293701D3*
D59*
X1743701D3*
D62*
X1318701Y818700D3*
X1118701Y818696D3*
X1143701Y1893701D3*
X1343701D3*
X1318701Y993701D3*
X1118701D3*
X1143701Y2393701D3*
X1343701D3*
D64*
X3843701Y993701D3*
D62*
X4040551D3*
D64*
X3843701Y1443701D3*
D62*
X4040551D3*
D46*
X2418710Y664566D3*
X3018710Y664592D3*
D60*
X3568701Y4043701D3*
D59*
Y3843701D3*
D60*
X3942126Y3877552D3*
D59*
Y3677552D3*
D60*
X1803944Y699216D3*
D59*
X1603944Y699210D3*
D57*
X2593701Y4043701D3*
D55*
Y3843701D3*
Y3643701D3*
Y3443701D3*
D62*
X1993701Y2693701D3*
X2593701D3*
X1993701Y2493701D3*
X2493701D3*
X1703944Y1441339D3*
Y941339D3*
X1543701Y1441339D3*
Y941339D3*
D53*
X3343701Y627953D3*
Y1427953D3*
D52*
X4118701Y1918700D3*
D51*
X4218701Y1918702D3*
D53*
X3531201Y3497433D3*
Y2697433D3*
D49*
X693701Y2843701D3*
Y3743701D3*
D21*
X590551Y590551D3*
X4133858D3*
X590551Y4133858D3*
X4133858D3*
D55*
X590551Y2368701D3*
Y1943701D3*
Y1543701D3*
X4079528Y3293701D3*
Y2493701D3*
Y2893701D3*
D52*
X2343701Y2143701D3*
Y2043701D3*
Y1943701D3*
D47*
X1093701Y2843701D3*
X1093695Y3143701D3*
D45*
X2293701Y2993701D3*
X1493701D3*
X2293701Y3193701D3*
X1493701D3*
X2068701Y1443701D3*
Y643701D3*
D43*
Y2143701D3*
Y1643701D3*
X1868701Y1441339D3*
Y941339D3*
X1493701Y2043701D3*
X993701D3*
X1493701Y1743701D3*
X993701D3*
X843701D3*
Y1243701D3*
X1493701Y2193701D3*
X993701D3*
X2822047Y1191339D3*
X2322047D3*
D45*
X3593701Y627559D3*
Y1427559D3*
D43*
X4218701Y941339D3*
Y1441339D3*
D46*
X3793701Y3402756D3*
Y2802756D3*
D43*
X2322047Y1027559D3*
X2822047D3*
D46*
X1693701Y3643701D3*
X1993701D3*
X1693701Y3968701D3*
X1993701D3*
X2893701Y2443701D3*
Y2293701D3*
Y2143701D3*
Y1993701D3*
Y1843701D3*
X3493701D3*
Y1993701D3*
Y2143701D3*
Y2293701D3*
Y2443701D3*
X2993701D3*
Y2293701D3*
Y2143701D3*
Y1993701D3*
Y1843701D3*
X3393701D3*
Y1993701D3*
Y2143701D3*
Y2293701D3*
Y2443701D3*
D41*
X1093701Y1443701D3*
D39*
Y1343701D3*
Y1243701D3*
Y1143701D3*
X1393701D3*
Y1243701D3*
Y1343701D3*
Y1443701D3*
D46*
X1143701Y3593701D3*
X1043701Y3993701D3*
M02*
