M48
INCH
T01C0.0315
T02C0.0354
T03C0.0394
T04C0.0433
T05C0.0472
T06C0.0551
T07C0.0709
T08C0.0787
T09C0.1575
%
T01
X+027937Y+031437
X+027937Y+029469
X+017937Y+026937
X+014937Y+026937
X+013437Y+023937
X+011437Y+023937
X+011437Y+018937
X+013437Y+018937
X+013937Y+014437
X+013937Y+013437
X+013937Y+012437
X+013937Y+011437
X+013187Y+009937
X+013187Y+008187
X+011187Y+008187
X+011187Y+009937
X+010937Y+011437
X+010937Y+012437
X+010937Y+013437
X+010937Y+014437
X+023937Y+013969
X+023937Y+015937
T02
X+013937Y+034937
X+014937Y+031937
X+014937Y+029937
X+010937Y+028437
X+010937Y+031437
X+016937Y+036437
X+019937Y+036437
X+022437Y+034937
X+022937Y+031937
X+022937Y+029937
X+019937Y+026937
X+019937Y+024937
X+019437Y+022937
X+020687Y+021437
X+019437Y+018937
X+017437Y+018937
X+014937Y+020437
X+014937Y+021937
X+017437Y+022937
X+014937Y+017437
X+015437Y+014413
X+017039Y+014413
X+018687Y+014413
X+020687Y+014437
X+020687Y+016437
X+023220Y+011913
X+023220Y+010276
X+024187Y+006646
X+020687Y+006437
X+018039Y+006992
X+016039Y+006992
X+015437Y+009413
X+017039Y+009413
X+018687Y+009413
X+028220Y+010276
X+028220Y+011913
X+030187Y+006646
X+035937Y+006276
X+038437Y+009937
X+040406Y+009937
X+042187Y+009413
X+042187Y+014413
X+040406Y+014437
X+038437Y+014437
X+035937Y+014276
X+041187Y+019187
X+042187Y+019187
X+037937Y+028028
X+037937Y+034028
X+039421Y+036776
X+039421Y+038776
X+035687Y+038437
X+035687Y+040437
X+029437Y+040437
X+029437Y+034437
X+025937Y+026937
X+024937Y+024937
X+009937Y+021937
X+009937Y+020437
X+009937Y+017437
X+008437Y+017437
X+008437Y+012437
X+016937Y+039687
X+019937Y+039687
X+022437Y+040937
X+013937Y+040937
T03
X+028937Y+024437
X+029937Y+024437
X+029937Y+022937
X+028937Y+022937
X+028937Y+021437
X+029937Y+021437
X+029937Y+019937
X+028937Y+019937
X+028937Y+018437
X+029937Y+018437
X+033937Y+018437
X+034937Y+018437
X+034937Y+019937
X+033937Y+019937
X+033937Y+021437
X+034937Y+021437
X+034937Y+022937
X+033937Y+022937
X+033937Y+024437
X+034937Y+024437
T04
X+023437Y+021437
X+023437Y+020437
X+023437Y+019437
T05
X+011437Y+035937
X+010437Y+039937
T06
X+025937Y+040437
X+025937Y+038437
X+025937Y+036437
X+025937Y+034437
X+006937Y+037437
X+006937Y+028437
T07
X+033437Y+006280
X+033437Y+014280
X+035312Y+026974
X+035312Y+034974
T08
X+005906Y+023687
X+005906Y+019437
X+005906Y+015437
X+040795Y+024937
X+040795Y+028937
X+040795Y+032937
T09
X+005906Y+005906
X+041339Y+005906
X+041339Y+041339
X+005906Y+041339
T00
M30
